<?xml version="1.0" encoding="utf-8"?>
<!-- Generator: Adobe Illustrator 25.2.1, SVG Export Plug-In . SVG Version: 6.00 Build 0)  -->
<svg version="1.1" id="Layer_1" xmlns="http://www.w3.org/2000/svg" xmlns:xlink="http://www.w3.org/1999/xlink" x="0px" y="0px"
	 viewBox="0 0 473.2 187.8" style="enable-background:new 0 0 473.2 187.8;" xml:space="preserve">
<style type="text/css">
	.st0{fill:#FFCD34;}
	.st1{font-family:'AkiraExpanded-SuperBold';}
	.st2{font-size:24.6997px;}
</style>
<g>
	<path class="st0" d="M91.4,4.8c-16,0-31,4.3-43.9,11.8c7.6,13.7,10,30.8,26,46.5c1.2,1.2,2.6,2.4,3.9,3.5
		c13.3-14.3,22.8-28.2,29.5-39.6c0.6-0.6,3.9-3.8,9.2-3.7c3.3,0.1,6.7,1.4,9.2,4l0,0c6.1,6.2,4.8,16.3-2.4,20.6
		c-12.2,7.1-27.6,9.2-42,21.4c5.9,4.4,12.6,8.3,19.2,11.7c11.2-12.7,19.5-25,25.4-35.2c0.6-0.6,3.9-3.8,9.2-3.7
		c3.3,0.1,6.7,1.4,9.2,4l0,0c6.1,6.2,4.8,16.3-2.4,20.6c-10.6,6.2-23.5,8.5-36.1,17c7,3.5,13.5,6.7,18.2,9.6c0.1,0,0.1,0.1,0.2,0.2
		c7.7-9.6,13.7-18.8,18.3-26.7c0.6-0.6,3.9-3.8,9.2-3.7c3.3,0.1,6.7,1.4,9.2,4l0,0c6.1,6.2,4.8,16.3-2.4,20.6
		c-8.5,5-18.6,7.5-28.8,12.7c1.6,4.6,0.7,9.9-3,13.6c-4.4,4.5-11.4,4.9-16.5,1.3c-12.4,14-20.3,36.4-27.1,48
		c-4.2,7.3-14.3,8.4-20.3,2.2c-5.1-5.2-5.2-13.5-0.2-18.6c12.7-7.4,28.7-18.6,44.8-34.7c-3.5-5.8-7.7-12.2-12.7-19
		c-13,13.9-21.1,37.2-28.1,49.2c-4.2,7.3-14.3,8.4-20.3,2.2l0,0c-5.1-5.2-5.2-13.5-0.2-18.6c13-7.6,29.4-19.1,45.9-35.8
		c0.1-0.1,0.2-0.2,0.3-0.3c-4.3-5.6-9.1-11.4-14.5-17.3c-0.4,0.4-0.7,0.7-1.1,1C63,87.5,54.7,111.2,47.7,123.4
		c-4.2,7.3-14.3,8.4-20.3,2.2l0,0c-5.1-5.2-5.2-13.5-0.2-18.6C40,99.5,56.5,88.1,73,71.4c0.5-0.5,1-1.1,1.5-1.6
		c-1.1-1.1-2.1-2.3-3.3-3.4C55.7,50.8,40.5,39.7,28.1,31.9C12.7,48,3.2,69.8,3.2,93.9c0,49.2,39.5,89.1,88.2,89.1
		s88.2-39.9,88.2-89.1S140.1,4.8,91.4,4.8z"/>
</g>
<text transform="matrix(0.8012 0 0 1 186.9444 107.8219)" class="st0 st1 st2">Border Generator</text>
</svg>
