<?xml version="1.0" encoding="utf-8"?>
<!-- Generator: Adobe Illustrator 25.2.1, SVG Export Plug-In . SVG Version: 6.00 Build 0)  -->
<svg version="1.1" id="Layer_1" xmlns="http://www.w3.org/2000/svg" xmlns:xlink="http://www.w3.org/1999/xlink" x="0px" y="0px"
	 viewBox="0 0 38.7 36.1" style="enable-background:new 0 0 38.7 36.1;" xml:space="preserve">
<style type="text/css">
	.st0{opacity:0.399;}
	.st1{clip-path:url(#SVGID_2_);}
	.st2{fill:#FFC107;}
</style>
<g id="Group_35" class="st0">
	<g>
		<defs>
			<rect id="SVGID_1_" x="-28.4" y="5.3" width="67.8" height="32.1"/>
		</defs>
		<clipPath id="SVGID_2_">
			<use xlink:href="#SVGID_1_"  style="display:none;overflow:visible;"/>
		</clipPath>
		<g id="Group_34" class="st1">
			<path id="Path_1600" class="st2" d="M4,9.7c2,0,3.7-2,3.7-4.4S6,0.9,4,0.9c-2,0-3.7,2-3.7,4.4C0.3,7.7,2,9.7,4,9.7
				C4,9.7,4,9.7,4,9.7 M4,1.2c1.9,0,3.4,1.8,3.4,4.1S5.9,9.4,4,9.4S0.6,7.6,0.6,5.3v0C0.6,3,2.1,1.2,4,1.2"/>
			<path id="Path_1601" class="st2" d="M10.7,9.7h6.6c0.4,0,0.8-0.4,0.8-1c0-0.2,0-0.3-0.1-0.5l-3.3-6.9c-0.2-0.5-0.7-0.6-1.1-0.4
				c-0.1,0.1-0.2,0.2-0.3,0.4L10,8.3c-0.2,0.5-0.1,1.1,0.3,1.3C10.4,9.7,10.5,9.7,10.7,9.7 M10.2,8.4l3.3-6.9
				c0.1-0.3,0.5-0.4,0.7-0.2c0.1,0.1,0.1,0.1,0.2,0.2l3.3,6.9c0.1,0.3,0.1,0.7-0.2,0.9c-0.1,0.1-0.2,0.1-0.3,0.1h-6.6
				c-0.3,0-0.5-0.3-0.5-0.6C10.1,8.6,10.1,8.5,10.2,8.4"/>
			<path id="Path_1602" class="st2" d="M21.6,9.7h4.9c0.6,0,1.1-0.6,1.1-1.3c0,0,0,0,0,0V2.5c0-0.7-0.5-1.3-1.1-1.3h-4.9
				c-0.6,0-1.1,0.6-1.1,1.3v5.9C20.5,9.1,21,9.7,21.6,9.7C21.6,9.7,21.6,9.7,21.6,9.7 M20.8,2.5c0-0.6,0.4-1,0.8-1h4.9
				c0.5,0,0.8,0.5,0.8,1v5.9c0,0.6-0.4,1-0.8,1h-4.9c-0.5,0-0.8-0.5-0.8-1L20.8,2.5z"/>
			<path id="Path_1603" class="st2" d="M31,8.7l2.2,1.6c0.5,0.4,1.2,0.4,1.7,0l2.2-1.6c0.5-0.4,0.9-1.1,0.9-1.8V3.7
				c0-0.7-0.3-1.4-0.9-1.8L35,0.4c-0.5-0.4-1.2-0.4-1.7,0L31,1.9c-0.5,0.4-0.9,1.1-0.9,1.8v3.1C30.1,7.6,30.5,8.3,31,8.7 M30.5,3.7
				c0-0.6,0.3-1.2,0.7-1.5l2.2-1.6c0.4-0.3,1-0.3,1.4,0L37,2.3c0.4,0.3,0.7,0.9,0.7,1.5v3.1c0,0.6-0.3,1.2-0.7,1.5l-2.2,1.6
				c-0.4,0.3-1,0.3-1.4,0l-2.2-1.6c-0.4-0.3-0.7-0.9-0.7-1.5V3.7z"/>
			<path id="Path_1604" class="st2" d="M24.5,26.3c-2,0-3.7,2-3.7,4.4s1.6,4.4,3.7,4.4c2,0,3.7-2,3.7-4.4l0,0
				C28.2,28.3,26.5,26.3,24.5,26.3 M24.5,34.9c-1.9,0-3.4-1.8-3.4-4.1c0-2.3,1.5-4.1,3.4-4.1c1.9,0,3.4,1.8,3.4,4.1
				C27.9,33,26.4,34.9,24.5,34.9"/>
			<path id="Path_1605" class="st2" d="M35.2,26.8c-0.2-0.5-0.7-0.6-1.1-0.4c-0.1,0.1-0.2,0.2-0.3,0.4l-3.3,6.9
				c-0.2,0.5-0.1,1.1,0.3,1.3c0.1,0.1,0.3,0.1,0.4,0.1h6.6c0.4,0,0.8-0.4,0.8-1c0-0.2,0-0.3-0.1-0.5L35.2,26.8z M38.3,34.5
				c-0.1,0.2-0.3,0.3-0.5,0.3h-6.6c-0.3,0-0.5-0.3-0.5-0.6c0-0.1,0-0.2,0.1-0.3L34,27c0.1-0.3,0.5-0.4,0.7-0.2
				c0.1,0.1,0.1,0.1,0.2,0.2l3.3,6.9C38.4,34.1,38.4,34.3,38.3,34.5"/>
			<path id="Path_1606" class="st2" d="M1.8,35.2h4.9c0.6,0,1.1-0.6,1.1-1.3c0,0,0,0,0,0V28c0-0.7-0.5-1.3-1.1-1.3H1.8
				c-0.6,0-1.1,0.6-1.1,1.3v5.9C0.7,34.6,1.2,35.2,1.8,35.2C1.8,35.2,1.8,35.2,1.8,35.2 M0.9,28c0-0.6,0.4-1,0.8-1h4.9
				c0.5,0,0.8,0.5,0.8,1v5.9c0,0.6-0.4,1-0.8,1H1.8c-0.5,0-0.8-0.5-0.8-1V28z"/>
			<path id="Path_1607" class="st2" d="M17.4,27.4l-2.2-1.6c-0.5-0.4-1.2-0.4-1.7,0l-2.2,1.6c-0.5,0.4-0.9,1.1-0.9,1.8v3.1
				c0,0.7,0.3,1.4,0.9,1.8l2.2,1.6c0.5,0.4,1.2,0.4,1.7,0l2.2-1.6c0.5-0.4,0.9-1.1,0.9-1.8v-3.1C18.2,28.4,17.9,27.8,17.4,27.4
				 M17.9,32.3c0,0.6-0.3,1.2-0.7,1.5L15,35.4c-0.4,0.3-1,0.3-1.4,0l-2.2-1.6c-0.4-0.3-0.7-0.9-0.7-1.5v-3.1c0-0.6,0.3-1.2,0.7-1.5
				l2.2-1.6c0.4-0.3,1-0.3,1.4,0l2.2,1.6c0.4,0.3,0.7,0.9,0.7,1.5V32.3z"/>
			<path id="Path_1608" class="st2" d="M34.4,13.2c-2,0-3.7,2-3.7,4.4s1.6,4.4,3.7,4.4s3.7-2,3.7-4.4S36.4,13.2,34.4,13.2L34.4,13.2
				 M34.4,21.7c-1.9,0-3.4-1.8-3.4-4.1s1.5-4.1,3.4-4.1s3.4,1.8,3.4,4.1C37.8,19.9,36.3,21.7,34.4,21.7"/>
			<path id="Path_1609" class="st2" d="M4.7,13.6C4.4,13.2,4,13,3.6,13.3c-0.1,0.1-0.2,0.2-0.3,0.4L0,20.6c-0.2,0.5-0.1,1.1,0.3,1.3
				C0.4,22,0.5,22,0.7,22h6.6c0.4,0,0.8-0.4,0.8-1c0-0.2,0-0.3-0.1-0.5L4.7,13.6z M7.7,21.4c-0.1,0.2-0.3,0.3-0.5,0.3H0.7
				c-0.3,0-0.5-0.3-0.5-0.6c0-0.1,0-0.2,0.1-0.3l3.3-6.9c0.1-0.3,0.5-0.4,0.7-0.2c0.1,0.1,0.1,0.1,0.2,0.2l3.3,6.9
				C7.8,20.9,7.8,21.2,7.7,21.4"/>
			<path id="Path_1610" class="st2" d="M16.5,13.5h-4.9c-0.6,0-1.1,0.6-1.1,1.3c0,0,0,0,0,0v5.9c0,0.7,0.5,1.3,1.1,1.3h4.9
				c0.6,0,1.1-0.6,1.1-1.3v-5.9C17.6,14.1,17.1,13.5,16.5,13.5C16.5,13.5,16.5,13.5,16.5,13.5 M17.3,20.7c0,0.6-0.4,1-0.8,1h-4.9
				c-0.5,0-0.8-0.5-0.8-1v-5.9c0-0.6,0.4-1,0.8-1h4.9c0.5,0,0.8,0.5,0.8,1V20.7z"/>
			<path id="Path_1611" class="st2" d="M21,21l2.2,1.6c0.5,0.4,1.2,0.4,1.7,0l2.2-1.6c0.5-0.4,0.9-1.1,0.9-1.8V16
				c0-0.7-0.3-1.4-0.9-1.8L25,12.7c-0.5-0.4-1.2-0.4-1.7,0L21,14.3c-0.5,0.4-0.9,1.1-0.9,1.8v3.1C20.2,19.9,20.5,20.6,21,21
				 M20.5,16c0-0.6,0.3-1.2,0.7-1.5l2.2-1.6c0.4-0.3,1-0.3,1.4,0l2.2,1.6c0.4,0.3,0.7,0.9,0.7,1.5v3.1c0,0.6-0.3,1.2-0.7,1.5
				l-2.2,1.6c-0.4,0.3-1,0.3-1.4,0l-2.2-1.6c-0.4-0.3-0.7-0.9-0.7-1.5L20.5,16z"/>
		</g>
	</g>
</g>
</svg>
